<svg aria-hidden="true" style="position: absolute; width: 0; height: 0; overflow: hidden;" version="1.1" xmlns="http://www.w3.org/2000/svg" xmlns:xlink="http://www.w3.org/1999/xlink">
<defs>
<symbol id="cpnav__icon-wyloguj" viewBox="0 0 27 32">
<path d="M13.171 23.012l-1.3-1.4 5.6-5.6-5.6-5.7 1.3-1.3 7 7z"></path>
<path d="M-0.029 15.012h17.9v1.9h-17.9v-1.9z"></path>
<path d="M18.871 16.912h-1.9c-0.5 0-0.9-0.4-0.9-0.9s0.4-0.9 0.9-0.9h1.9c0.5 0 0.9 0.4 0.9 0.9s-0.4 0.9-0.9 0.9z"></path>
<path d="M27.271 32.012h-22.6v-32h22.6v32zM6.571 30.112h18.8v-28.2h-18.8v28.2z"></path>
</symbol>
<symbol id="cpnav__icon-biez-plat" viewBox="0 0 36 32">
<path d="M24.492 18.803h-13.203v-5.594h-11.301v-1.902h13.203v5.706h9.399v-5.706h13.203v1.902h-11.301z"></path>
<path d="M35.793 32.006h-35.804v-20.028l6.042-11.972h23.832l6.042 11.972v20.028zM1.891 30.104h32v-17.678l-5.259-10.629h-21.483l-5.259 10.629v17.678z"></path>
</symbol>
<symbol id="cpnav__icon-hist-plat" viewBox="0 0 36 32">
<path d="M24.492 24.509h-13.203v-5.706h-11.301v-1.79h13.203v5.594h9.399v-5.594h13.203v1.79h-11.301z"></path>
<path d="M35.793 32.006h-35.804v-14.322l3.916-17.678h27.86l3.916 17.902v14.098zM1.891 30.104h32v-12.084l-3.58-16.112h-24.839l-3.58 16.112v12.084z"></path>
<path d="M7.485 5.6h20.699v1.902h-20.699v-1.902z"></path>
<path d="M6.59 11.306h22.601v1.902h-22.601v-1.902z"></path>
</symbol>
<symbol id="cpnav__icon-dane" viewBox="0 0 32 32">
<path d="M27.813 32.002h-27.774v-31.094h17.912v1.61h-16.302v27.774h24.553v-13.082h1.61z"></path>
<path d="M12.517 24.555c0 0 0 0 0 0h-5.233v-5.233c0-1.107 0.403-2.113 1.208-2.918l15.396-15.195c0.805-0.805 1.811-1.208 2.918-1.208s2.113 0.403 2.918 1.208l1.107 1.107c1.61 1.61 1.61 4.226 0 5.736l-15.396 15.396c-0.805 0.704-1.811 1.107-2.918 1.107zM8.995 22.945h3.522c0 0 0 0 0 0 0.704 0 1.308-0.302 1.711-0.704l15.296-15.296c0.906-1.006 0.906-2.516 0-3.421l-1.107-1.107c-0.906-0.906-2.516-0.906-3.421 0v0l-15.296 15.296c-0.503 0.503-0.704 1.107-0.704 1.711v3.522zM24.492 1.813v0 0z"></path>
<path d="M21.275 3.748l1.138-1.139 6.903 6.902-1.138 1.139-6.903-6.902z"></path>
</symbol>
</defs>
</svg>
